<svg xmlns="http://www.w3.org/2000/svg" viewBox="0 0 64 64" width="64" height="64" role="img" aria-label="game arcade"><defs><linearGradient id="g" x1="0" y1="0" x2="0" y2="1"><stop offset="0" stop-color="#f97316" stop-opacity="0.30"/><stop offset="0.55" stop-color="#f97316" stop-opacity="0.10"/><stop offset="1" stop-color="#04060c" stop-opacity="0.9"/></linearGradient></defs><rect width="64" height="64" rx="14" fill="url(#g)"/><rect x="0.75" y="0.75" width="62.5" height="62.5" rx="13.25" fill="none" stroke="#f97316" stroke-opacity="0.55" stroke-width="1.5"/><path d="M6 1h52a5 5 0 015 5v6H1V6a5 5 0 015-5z" fill="#ffffff" fill-opacity="0.06"/><g fill="none" stroke="#eafcff" stroke-width="2.6" stroke-linecap="round" stroke-linejoin="round"><path d="M24 18h16v10h10a8 8 0 018 8v6a8 8 0 01-8 8H14a8 8 0 01-8-8v-6a8 8 0 018-8h10z"/><path d="M32 18V10"/><circle cx="46" cy="30" r="2"/><circle cx="52" cy="36" r="2"/><path d="M14 40h8M18 36v8"/></g></svg>